Coordinates
version=1
nRows=11
nColumns=46
inDegrees=yes

Units are S.I. units (second, meters, Newtons, ...)
Angles are in degrees.

endheader
time	pelvis_tilt	pelvis_list	pelvis_rotation	pelvis_tx	pelvis_ty	pelvis_tz	bb_angle	bb_tx	bb_ty	bb_tz	hip_flexion_r	hip_adduction_r	hip_rotation_r	knee_angle_r	knee_angle_r_beta	ankle_angle_r	subtalar_angle_r	mtp_angle_r	crank_angle_r	hip_flexion_l	hip_adduction_l	hip_rotation_l	knee_angle_l	knee_angle_l_beta	ankle_angle_l	subtalar_angle_l	mtp_angle_l	crank_angle_l	lumbar_extension	lumbar_bending	lumbar_rotation	arm_flex_r	arm_add_r	arm_rot_r	elbow_flex_r	pro_sup_r	wrist_flex_r	wrist_dev_r	arm_flex_l	arm_add_l	arm_rot_l	elbow_flex_l	pro_sup_l	wrist_flex_l	wrist_dev_l
      7.50500000	    -18.32512973	     -6.28445808	     -5.67844912	      0.07005049	      1.11624116	     -0.26558280	      0.00000000	      0.50000000	      0.00000000	      0.25000000	     88.15231578	      6.77799718	      1.81569536	     98.29135890	      1.71550784	      8.46701151	    -13.40299744	      0.00000000	      0.00000000	     52.35898019	    -12.23756402	      4.29536005	     56.12236449	      0.97952004	    -23.75893138	    -12.77867871	      0.00000000	      0.00000000	    -68.42255225	      3.82803365	      5.50235558	     89.68509074	    -23.73695462	     28.34476094	     86.48518419	     37.78309666	      0.00000000	      0.00000000	     89.38171638	    -51.07027357	     45.23032708	     97.42364356	     39.06505971	      0.00000000	      0.00000000
      7.51000000	    -18.14247062	     -6.14677739	     -5.95032055	      0.06984898	      1.11608247	     -0.26554666	      0.00000000	      0.50000000	      0.00000000	      0.25000000	     86.73234113	      6.93520285	      1.80350315	     95.95659237	      1.67475848	      9.80725341	    -13.84086841	      0.00000000	      0.00000000	     53.28377810	    -12.03566026	      4.81678721	     58.73250056	      1.02507551	    -24.69811977	    -13.36707105	      0.00000000	      0.00000000	    -68.52465133	      3.60515144	      5.41858194	     89.68664983	    -23.41438129	     28.38721110	     86.50665364	     37.62673419	      0.00000000	      0.00000000	     89.37131103	    -51.21985406	     45.26884990	     97.36372484	     39.00382407	      0.00000000	      0.00000000
      7.51500000	    -18.02263963	     -6.02000396	     -6.20247614	      0.06964702	      1.11564057	     -0.26549895	      0.00000000	      0.50000000	      0.00000000	      0.25000000	     85.36997293	      7.03074761	      1.73952747	     93.52485879	      1.63231672	     10.89031139	    -14.09241166	      0.00000000	      0.00000000	     54.30735314	    -11.79879067	      5.39586993	     61.32617105	      1.07034360	    -25.62576685	    -13.80946035	      0.00000000	      0.00000000	    -68.51973676	      3.46794530	      4.69553580	     89.69266362	    -21.90913139	     28.34037679	     86.02734794	     35.65720007	      0.00000000	      0.00000000	     89.34551614	    -52.53566828	     45.53451503	     97.94574765	     38.52864781	      0.00000000	      0.00000000
      7.52000000	    -17.84039582	     -5.76427328	     -6.47188897	      0.06950811	      1.11500648	     -0.26541158	      0.00000000	      0.50000000	      0.00000000	      0.25000000	     83.95891136	      7.08670921	      1.80974334	     91.10188197	      1.59002780	     11.86264935	    -14.11825687	      0.00000000	      0.00000000	     55.26281770	    -11.47324889	      5.84931274	     63.93240919	      1.11583104	    -26.38698310	    -14.16558170	      0.00000000	      0.00000000	    -68.51256165	      3.16712611	      4.57034688	     89.69112495	    -21.72943504	     28.40642336	     85.97577327	     35.55515532	      0.00000000	      0.00000000	     89.34364507	    -52.51797639	     45.65681969	     97.78548177	     38.47515037	      0.00000000	      0.00000000
      7.52500000	    -17.63546273	     -5.57129349	     -6.71908062	      0.06942964	      1.11431443	     -0.26565397	      0.00000000	      0.50000000	      0.00000000	      0.25000000	     82.50364637	      7.06451943	      1.73311830	     88.53971416	      1.54530953	     12.30043865	    -14.39821628	      0.00000000	      0.00000000	     56.21251758	    -11.13852844	      6.32833224	     66.48642889	      1.16040709	    -27.20663846	    -14.51255182	      0.00000000	      0.00000000	    -68.50725550	      2.92375262	      4.43968920	     89.69165908	    -21.48029811	     28.47814969	     85.77058695	     35.41471002	      0.00000000	      0.00000000	     89.33551484	    -52.52109627	     45.86408053	     97.60986586	     38.42265936	      0.00000000	      0.00000000
      7.53000000	    -17.34875273	     -4.96094582	     -6.86312297	      0.06945159	      1.11360275	     -0.26599045	      0.00000000	      0.50000000	      0.00000000	      0.25000000	     81.07630994	      6.79354168	      2.11506501	     86.11198331	      1.50293763	     12.48376781	    -14.37606269	      0.00000000	      0.00000000	     56.98336408	    -10.42576902	      6.48490253	     68.86169145	      1.20186324	    -27.87618241	    -14.43958184	      0.00000000	      0.00000000	    -68.51385034	      2.52159509	      3.93642712	     89.68646457	    -21.48754028	     28.45323925	     85.77260967	     35.39420662	      0.00000000	      0.00000000	     89.30929615	    -52.37894508	     45.97346751	     97.57314498	     38.41754906	      0.00000000	      0.00000000
      7.53500000	    -17.01375572	     -5.06735192	     -7.16296741	      0.06944023	      1.11266586	     -0.26591633	      0.00000000	      0.50000000	      0.00000000	      0.25000000	     79.53589358	      6.91185709	      1.81951549	     83.62842757	      1.45959141	     12.58394965	    -14.24678858	      0.00000000	      0.00000000	     57.92182696	    -10.45524244	      6.94331365	     71.46451120	      1.24729102	    -28.83750157	    -15.00198549	      0.00000000	      0.00000000	    -68.63056336	      2.34756799	      4.01167466	     89.68968537	    -21.10718425	     28.65107145	     85.36903659	     35.24477608	      0.00000000	      0.00000000	     89.33710046	    -52.49979518	     46.18736320	     97.31544406	     38.35746750	      0.00000000	      0.00000000
      7.54000000	    -16.73567400	     -4.53373645	     -7.28091811	      0.06941005	      1.11154607	     -0.26624894	      0.00000000	      0.50000000	      0.00000000	      0.25000000	     78.18630092	      6.62762540	      2.19068298	     81.31291904	      1.41917816	     12.40322076	    -13.95552330	      0.00000000	      0.00000000	     58.78481260	     -9.80282483	      7.06493723	     73.81678058	      1.28834586	    -29.50496653	    -15.00438710	      0.00000000	      0.00000000	    -68.60263278	      1.96229315	      3.48728271	     89.68314735	    -21.09048015	     28.65743830	     85.25861447	     35.19254065	      0.00000000	      0.00000000	     89.33876927	    -52.37731859	     46.34733197	     97.26635336	     38.34968390	      0.00000000	      0.00000000
      7.54500000	    -16.48094573	     -4.30474957	     -7.45726530	      0.06951845	      1.11049884	     -0.26655173	      0.00000000	      0.50000000	      0.00000000	      0.25000000	     76.80311294	      6.41308904	      2.19062044	     78.89964871	      1.37705865	     11.98820337	    -13.36364231	      0.00000000	      0.00000000	     59.71384148	     -9.46412504	      7.27350549	     76.15214709	      1.32910570	    -30.30932687	    -15.28599781	      0.00000000	      0.00000000	    -68.57842298	      1.72455532	      3.23294985	     89.68348704	    -20.94430241	     28.79902165	     84.95567711	     35.09319493	      0.00000000	      0.00000000	     89.33189130	    -52.39657741	     46.54666138	     97.12613718	     38.32186154	      0.00000000	      0.00000000
      7.55000000	    -16.38411592	     -4.33468094	     -7.64079291	      0.06972841	      1.10909176	     -0.26679916	      0.00000000	      0.50000000	      0.00000000	      0.25000000	     75.54373615	      6.37900944	      2.12201566	     76.59041577	      1.33675493	     11.58377115	    -12.85155102	      0.00000000	      0.00000000	     60.89173782	     -9.34385279	      7.63014369	     78.52658565	      1.37054747	    -31.32277547	    -15.58180410	      0.00000000	      0.00000000	    -68.34120365	      1.66914694	      3.09340526	     89.68753672	    -20.59020916	     29.17149219	     84.21632034	     34.83622102	      0.00000000	      0.00000000	     89.31731748	    -52.61495604	     46.99969646	     96.93058063	     38.27735881	      0.00000000	      0.00000000
      7.55500000	    -16.14179079	     -3.89612302	     -7.65183251	      0.06995010	      1.10806911	     -0.26719132	      0.00000000	      0.50000000	      0.00000000	      0.25000000	     74.21433421	      5.98715923	      2.42249726	     74.35943322	      1.29781694	     10.94873479	    -12.34186288	      0.00000000	      0.00000000	     61.78871700	     -8.67046409	      7.80305204	     80.68460214	      1.40821196	    -31.85698392	    -15.52944093	      0.00000000	      0.00000000	    -68.34221550	      1.41511535	      2.56420112	     89.67982704	    -20.66613150	     29.20200463	     84.15192139	     34.80010996	      0.00000000	      0.00000000	     89.31884882	    -52.55873234	     47.08961163	     96.89992079	     38.27075420	      0.00000000	      0.00000000
